<svg xmlns="http://www.w3.org/2000/svg" version="1.1" xmlns:xlink="http://www.w3.org/1999/xlink" xmlns:svgjs="http://svgjs.dev/svgjs" width="1920" height="1080" preserveAspectRatio="none" viewBox="0 0 1920 1080"><g mask="url(&quot;#SvgjsMask2186&quot;)" fill="none"><rect width="1920" height="1080" x="0" y="0" fill="url(&quot;#SvgjsRadialGradient2187&quot;)"></rect><path d="M146.698,307.251C215.273,307.248,294.703,311.294,330.815,252.998C368.042,192.901,339.186,117.134,301.528,57.306C266.775,2.093,211.933,-38.724,146.698,-39.514C80.136,-40.32,20.7,-2.856,-14.763,53.478C-52.985,114.196,-75.965,192.482,-37.451,253.016C-0.635,310.881,78.114,307.254,146.698,307.251" fill="rgba(220, 38, 38, 0.7)" class="triangle-float2"></path><path d="M78.706,224.113C125.497,220.297,151.816,175.105,174.182,133.829C195.089,95.245,214.73,50.839,193.372,12.503C171.618,-26.544,123.4,-38.123,78.706,-37.543C35.215,-36.978,-6.716,-20.725,-30.915,15.416C-58.274,56.275,-71.051,108.433,-48.185,151.966C-23.935,198.134,26.73,228.352,78.706,224.113" fill="rgba(220, 38, 38, 0.7)" class="triangle-float3"></path><path d="M152.567,367.327C224.106,369.037,275.766,306.297,309.942,243.427C342.28,183.938,358.601,111.75,322.711,54.334C288.375,-0.596,217.333,-9.619,152.567,-8.338C90.672,-7.114,25.247,7.579,-6.305,60.842C-38.339,114.917,-21.223,180.404,7.702,236.204C39.828,298.18,82.779,365.659,152.567,367.327" fill="rgba(220, 38, 38, 0.7)" class="triangle-float2"></path><path d="M1818.836,289.044C1876.957,288.318,1917.756,239.065,1947.012,188.839C1976.529,138.165,1997.716,79.135,1971.729,26.563C1943.061,-31.432,1883.437,-73.928,1818.836,-70.462C1758.447,-67.222,1719.408,-12.306,1691.943,41.574C1667.492,89.541,1660.425,144.204,1684.99,192.112C1711.929,244.649,1759.8,289.782,1818.836,289.044" fill="rgba(220, 38, 38, 0.7)" class="triangle-float3"></path><path d="M1756.531,166.296C1797.468,167.046,1835.751,145.545,1856.493,110.244C1877.511,74.474,1878.52,30.006,1857.696,-5.877C1836.95,-41.626,1797.844,-63.284,1756.531,-62.007C1717.231,-60.792,1684.754,-34.305,1665.645,0.058C1647.123,33.366,1644.439,73.252,1662.721,106.692C1681.769,141.533,1716.83,165.568,1756.531,166.296" fill="rgba(220, 38, 38, 0.7)" class="triangle-float2"></path><path d="M1827.77,293.89C1888.957,293.216,1946.223,262.815,1977.077,209.972C2008.191,156.684,2009.589,90.033,1977.614,37.257C1946.698,-13.771,1887.426,-35.558,1827.77,-36.467C1766.187,-37.405,1702.295,-19.755,1669.804,32.568C1635.733,87.436,1639.246,158.052,1672.657,213.324C1704.961,266.765,1765.328,294.577,1827.77,293.89" fill="rgba(220, 38, 38, 0.7)" class="triangle-float2"></path><path d="M179.563,1289.528C264.394,1289.188,339.749,1233.762,376.927,1157.511C410.2,1089.269,386.894,1011.466,346.477,947.196C309.121,887.795,249.62,847.675,179.563,843.672C101.234,839.197,18.018,859.779,-24.013,926.028C-68.627,996.349,-61.25,1086.443,-20.557,1159.103C21.143,1233.561,94.224,1289.87,179.563,1289.528" fill="rgba(220, 38, 38, 0.7)" class="triangle-float3"></path><path d="M21.556,953.031C50.182,953.785,82.759,953.917,98.288,929.857C114.697,904.434,107.873,870.579,90.978,845.476C75.921,823.105,48.521,815.614,21.556,815.852C-4.9,816.085,-31.58,824.356,-45.776,846.682C-60.988,870.605,-63.64,902.036,-48.475,925.989C-34.128,948.649,-5.255,952.324,21.556,953.031" fill="rgba(220, 38, 38, 0.7)" class="triangle-float2"></path><path d="M215.763,1343.846C304.409,1342.912,374.362,1273.469,413.483,1193.917C448.085,1123.555,431.964,1045.298,397.123,975.054C356.585,893.323,306.692,802.705,215.763,795.28C115.527,787.095,20.269,850.928,-25.352,940.555C-67.508,1023.373,-36.997,1118.399,10.69,1198.161C56.807,1275.297,125.897,1344.793,215.763,1343.846" fill="rgba(220, 38, 38, 0.7)" class="triangle-float2"></path><path d="M1966.353,1457.935C2077.101,1461.469,2155.838,1363.698,2211.41,1267.837C2267.206,1171.589,2306.612,1058.242,2255.277,959.542C2200.6,854.418,2084.814,793.936,1966.353,796.677C1852.291,799.316,1749.127,869.57,1699.693,972.397C1655.642,1064.026,1698.028,1163.901,1746.969,1253.014C1798.598,1347.021,1859.156,1454.514,1966.353,1457.935" fill="rgba(220, 38, 38, 0.7)" class="triangle-float1"></path><path d="M1866.935,1241.5C1945.399,1247.327,2022.797,1207.774,2062.213,1139.679C2101.698,1071.464,2097.317,984.735,2053.47,919.239C2013.783,859.957,1938.259,846.491,1866.935,847.98C1798.868,849.401,1726.987,867.524,1693.416,926.754C1660.19,985.375,1683.637,1054.971,1716.169,1113.98C1750.229,1175.76,1796.582,1236.275,1866.935,1241.5" fill="rgba(220, 38, 38, 0.7)" class="triangle-float1"></path><path d="M1744.262,989.025C1776.005,988.72,1806.523,976.769,1824.319,950.483C1844.669,920.425,1855.601,881.873,1838.471,849.87C1820.571,816.429,1782.056,797.708,1744.262,800.919C1710.749,803.766,1690.377,834.324,1674.221,863.824C1658.925,891.755,1645.948,924.255,1661.495,952.047C1677.307,980.312,1711.876,989.336,1744.262,989.025" fill="rgba(220, 38, 38, 0.7)" class="triangle-float3"></path></g><defs><mask id="SvgjsMask2186"><rect width="1920" height="1080" fill="#ffffff"></rect></mask><radialGradient cx="100%" cy="100%" r="2202.91" gradientUnits="userSpaceOnUse" id="SvgjsRadialGradient2187"><stop stop-color="rgba(17, 17, 19, 1)" offset="0"></stop><stop stop-color="rgba(0, 0, 0, 1)" offset="1"></stop></radialGradient><style>
                @keyframes float1 {
                    0%{transform: translate(0, 0)}
                    50%{transform: translate(-10px, 0)}
                    100%{transform: translate(0, 0)}
                }

                .triangle-float1 {
                    animation: float1 5s infinite;
                }

                @keyframes float2 {
                    0%{transform: translate(0, 0)}
                    50%{transform: translate(-5px, -5px)}
                    100%{transform: translate(0, 0)}
                }

                .triangle-float2 {
                    animation: float2 4s infinite;
                }

                @keyframes float3 {
                    0%{transform: translate(0, 0)}
                    50%{transform: translate(0, -10px)}
                    100%{transform: translate(0, 0)}
                }

                .triangle-float3 {
                    animation: float3 6s infinite;
                }
            </style></defs></svg>