<svg xmlns="http://www.w3.org/2000/svg" version="1.1" xmlns:xlink="http://www.w3.org/1999/xlink" xmlns:svgjs="http://svgjs.dev/svgjs" width="1920" height="1080" preserveAspectRatio="none" viewBox="0 0 1920 1080"><g mask="url(&quot;#SvgjsMask1069&quot;)" fill="none"><rect width="1920" height="1080" x="0" y="0" fill="rgba(22, 22, 24, 1)"></rect><path d="M42 1080L1122 0L1615.5 0L535.5 1080z" fill="url(&quot;#SvgjsLinearGradient1070&quot;)"></path><path d="M686.6 1080L1766.6 0L2153.6 0L1073.6 1080z" fill="url(&quot;#SvgjsLinearGradient1070&quot;)"></path><path d="M1873 1080L793 0L263.5 0L1343.5 1080z" fill="url(&quot;#SvgjsLinearGradient1071&quot;)"></path><path d="M1179.4 1080L99.40000000000009 0L-166.0999999999999 0L913.9000000000001 1080z" fill="url(&quot;#SvgjsLinearGradient1071&quot;)"></path><path d="M904.2192619961985 1080L1920 64.2192619961985L1920 1080z" fill="url(&quot;#SvgjsLinearGradient1070&quot;)"></path><path d="M0 1080L1015.7807380038015 1080L 0 64.2192619961985z" fill="url(&quot;#SvgjsLinearGradient1071&quot;)"></path></g><defs><mask id="SvgjsMask1069"><rect width="1920" height="1080" fill="#ffffff"></rect></mask><linearGradient x1="0%" y1="100%" x2="100%" y2="0%" id="SvgjsLinearGradient1070"><stop stop-color="rgba(220, 38, 38, 1)" offset="0"></stop><stop stop-opacity="0" stop-color="rgba(220, 38, 38, 1)" offset="0.66"></stop></linearGradient><linearGradient x1="100%" y1="100%" x2="0%" y2="0%" id="SvgjsLinearGradient1071"><stop stop-color="rgba(220, 38, 38, 1)" offset="0"></stop><stop stop-opacity="0" stop-color="rgba(220, 38, 38, 1)" offset="0.66"></stop></linearGradient></defs></svg>